<?xml version="1.0" encoding="utf-8"?>
<!-- Generator: Adobe Illustrator 15.0.0, SVG Export Plug-In  -->
<!DOCTYPE svg PUBLIC "-//W3C//DTD SVG 1.1//EN" "http://www.w3.org/Graphics/SVG/1.1/DTD/svg11.dtd" [
	<!ENTITY ns_flows "http://ns.adobe.com/Flows/1.0/">
]>
<svg version="1.1"
	 xmlns="http://www.w3.org/2000/svg" xmlns:xlink="http://www.w3.org/1999/xlink" xmlns:a="http://ns.adobe.com/AdobeSVGViewerExtensions/3.0/"
	 x="0px" y="0px" width="109px" height="145px" viewBox="-13.038 -11.106 109 145"
	 overflow="visible" enable-background="new -13.038 -11.106 109 145" xml:space="preserve">
<defs>
</defs>
<path fill="#FECA39" d="M73.756,48.107c-0.702,0-1.381-0.267-1.897-0.749l-4.281-3.985c-1.125-1.047-1.188-2.81-0.139-3.936
	c1.046-1.126,2.811-1.188,3.936-0.14l2.091,1.946c5.14-7.5,4.162-17.864-2.689-24.245c-3.654-3.403-8.43-5.175-13.408-5.002
	c-4.051,0.145-7.859,1.562-10.969,4.044l2.653,2.473c1.126,1.049,1.188,2.81,0.139,3.937c-1.047,1.125-2.81,1.188-3.937,0.139
	l-4.84-4.508c-1.127-1.05-1.189-2.812-0.141-3.937C44.691,9.4,50.692,6.661,57.17,6.43c6.488-0.225,12.657,2.074,17.401,6.492
	c9.793,9.121,10.341,24.507,1.224,34.298c-0.504,0.539-1.201,0.858-1.938,0.887C73.824,48.106,73.79,48.107,73.756,48.107z"/>
<path fill="#FECA39" d="M59.357,120.568H24.352c-1.538,0-2.784-1.246-2.784-2.785c0-1.538,1.246-2.785,2.784-2.785h35.005
	c1.538,0,2.784,1.247,2.784,2.785C62.141,119.322,60.895,120.568,59.357,120.568z"/>
<path fill="#FECA39" d="M41.854,96.827c-0.007,0-0.017,0-0.022,0c-12.451-0.105-19.274-5.741-22.809-10.449
	c-5.719-7.625-6.501-17.473-4.74-23.929c0.62-3.923,1.76-6.994,2.77-9.708c0.822-2.213,1.531-4.124,1.899-6.226
	c0.866-4.96-0.145-9.261-1.314-14.244c-0.342-1.46-0.693-2.955-1.01-4.518c-0.167-0.817,0.044-1.669,0.573-2.315
	c0.528-0.647,1.32-1.022,2.155-1.022h44.996c0.836,0,1.629,0.375,2.157,1.021c0.529,0.648,0.74,1.499,0.573,2.317
	c-0.316,1.564-0.67,3.062-1.012,4.523c-1.17,4.98-2.18,9.28-1.313,14.239c0.367,2.101,1.079,4.012,1.899,6.225
	c1.01,2.713,2.151,5.785,2.77,9.708c1.761,6.455,0.979,16.303-4.741,23.928c-3.532,4.709-10.357,10.345-22.808,10.45
	C41.872,96.827,41.863,96.827,41.854,96.827z M22.822,29.985c0.082,0.34,0.16,0.678,0.238,1.013
	c1.255,5.346,2.44,10.395,1.38,16.476c-0.458,2.605-1.288,4.841-2.167,7.208c-0.976,2.623-1.983,5.338-2.51,8.776
	c-0.018,0.112-0.041,0.226-0.072,0.336C18.289,68.76,18.877,76.9,23.48,83.035c4.037,5.382,10.219,8.147,18.374,8.222
	c8.156-0.074,14.338-2.841,18.376-8.224c4.604-6.136,5.19-14.273,3.789-19.239c-0.032-0.11-0.056-0.223-0.074-0.334
	c-0.526-3.44-1.534-6.155-2.509-8.779c-0.879-2.366-1.71-4.602-2.167-7.205c-1.061-6.081,0.124-11.129,1.378-16.471
	c0.08-0.337,0.158-0.678,0.24-1.02H22.822z"/>
<path fill="#FECA39" d="M2.786,22.755c-0.815,0-1.614-0.358-2.155-1.02c-0.813-0.993-0.843-2.418-0.07-3.441L13.516,1.109
	c0.544-0.722,1.395-1.133,2.307-1.108l21.51,0.64c1.283,0.037,2.375,0.949,2.641,2.206c0.267,1.258-0.36,2.533-1.518,3.088
	L3.99,22.48C3.606,22.665,3.193,22.755,2.786,22.755z M17.097,5.612l-5.195,6.891l13.821-6.635L17.097,5.612z"/>
<path fill="#FECA39" d="M27.71,29.883c-1.022,0-2.006-0.564-2.494-1.542l-7.426-14.853c-0.689-1.378-0.132-3.051,1.244-3.738
	c1.375-0.687,3.048-0.13,3.736,1.246l7.428,14.854c0.688,1.376,0.131,3.05-1.246,3.736C28.553,29.787,28.128,29.883,27.71,29.883z"
	/>
<path fill="#FECA39" d="M41.855,108.11c-4.127,0-7.485-3.358-7.485-7.485s3.358-7.485,7.485-7.485c4.128,0,7.486,3.358,7.486,7.485
	S45.983,108.11,41.855,108.11z M41.855,98.71c-1.055,0-1.914,0.858-1.914,1.915s0.859,1.915,1.914,1.915
	c1.056,0,1.915-0.858,1.915-1.915S42.911,98.71,41.855,98.71z"/>
<path fill="#FECA39" d="M41.855,118.266c-1.538,0-2.784-1.246-2.784-2.785v-7.429c0-1.538,1.246-2.784,2.784-2.784
	s2.785,1.246,2.785,2.784v7.429C44.64,117.02,43.393,118.266,41.855,118.266z"/>
</svg>
